<svg width="150" height="150" fill="none" xmlns="http://www.w3.org/2000/svg"><path d="M.16 145.282h4.032v4.032H.16v-4.032z" fill="url(#paint0_linear_2_11)"/><path d="M.16 121.087h4.032v4.032H.16v-4.032z" fill="url(#paint1_linear_2_11)"/><path d="M.16 96.892h4.032v4.033H.16v-4.033z" fill="url(#paint2_linear_2_11)"/><path d="M.16 72.698h4.032v4.032H.16v-4.032z" fill="url(#paint3_linear_2_11)"/><path d="M.16 48.503h4.032v4.033H.16v-4.033z" fill="url(#paint4_linear_2_11)"/><path d="M.16 24.309h4.032v4.032H.16v-4.032z" fill="url(#paint5_linear_2_11)"/><path d="M.16.114h4.032v4.032H.16V.114z" fill="url(#paint6_linear_2_11)"/><path d="M24.354 145.282h4.033v4.032h-4.033v-4.032z" fill="url(#paint7_linear_2_11)"/><path d="M24.354 121.087h4.033v4.032h-4.033v-4.032z" fill="url(#paint8_linear_2_11)"/><path d="M24.354 96.892h4.033v4.033h-4.033v-4.033z" fill="url(#paint9_linear_2_11)"/><path d="M24.354 72.698h4.033v4.032h-4.033v-4.032z" fill="url(#paint10_linear_2_11)"/><path d="M24.354 48.503h4.033v4.033h-4.033v-4.033z" fill="url(#paint11_linear_2_11)"/><path d="M24.354 24.309h4.033v4.032h-4.033v-4.032z" fill="url(#paint12_linear_2_11)"/><path d="M24.354.114h4.033v4.032h-4.033V.114z" fill="url(#paint13_linear_2_11)"/><path d="M48.549 145.282h4.032v4.032H48.55v-4.032z" fill="url(#paint14_linear_2_11)"/><path d="M48.549 121.087h4.032v4.032H48.55v-4.032z" fill="url(#paint15_linear_2_11)"/><path d="M48.549 96.892h4.032v4.033H48.55v-4.033z" fill="url(#paint16_linear_2_11)"/><path d="M48.549 72.698h4.032v4.032H48.55v-4.032z" fill="url(#paint17_linear_2_11)"/><path d="M48.549 48.503h4.032v4.033H48.55v-4.033z" fill="url(#paint18_linear_2_11)"/><path d="M48.549 24.309h4.032v4.032H48.55v-4.032z" fill="url(#paint19_linear_2_11)"/><path d="M48.549.114h4.032v4.032H48.55V.114z" fill="url(#paint20_linear_2_11)"/><path d="M72.743 145.282h4.033v4.032h-4.033v-4.032z" fill="url(#paint21_linear_2_11)"/><path d="M72.743 121.087h4.033v4.032h-4.033v-4.032z" fill="url(#paint22_linear_2_11)"/><path d="M72.743 96.892h4.033v4.033h-4.033v-4.033z" fill="url(#paint23_linear_2_11)"/><path d="M72.743 72.698h4.033v4.032h-4.033v-4.032z" fill="url(#paint24_linear_2_11)"/><path d="M72.743 48.503h4.033v4.033h-4.033v-4.033z" fill="url(#paint25_linear_2_11)"/><path d="M72.743 24.309h4.033v4.032h-4.033v-4.032z" fill="url(#paint26_linear_2_11)"/><path d="M72.743.114h4.033v4.032h-4.033V.114z" fill="url(#paint27_linear_2_11)"/><path d="M96.938 145.282h4.032v4.032h-4.032v-4.032z" fill="url(#paint28_linear_2_11)"/><path d="M96.938 121.087h4.032v4.032h-4.032v-4.032z" fill="url(#paint29_linear_2_11)"/><path d="M96.938 96.892h4.032v4.033h-4.032v-4.033z" fill="url(#paint30_linear_2_11)"/><path d="M96.938 72.698h4.032v4.032h-4.032v-4.032z" fill="url(#paint31_linear_2_11)"/><path d="M96.938 48.503h4.032v4.033h-4.032v-4.033z" fill="url(#paint32_linear_2_11)"/><path d="M96.938 24.309h4.032v4.032h-4.032v-4.032z" fill="url(#paint33_linear_2_11)"/><path d="M96.938.114h4.032v4.032h-4.032V.114z" fill="url(#paint34_linear_2_11)"/><path d="M121.133 145.282h4.032v4.032h-4.032v-4.032z" fill="url(#paint35_linear_2_11)"/><path d="M121.133 121.087h4.032v4.032h-4.032v-4.032z" fill="url(#paint36_linear_2_11)"/><path d="M121.133 96.892h4.032v4.033h-4.032v-4.033z" fill="url(#paint37_linear_2_11)"/><path d="M121.133 72.698h4.032v4.032h-4.032v-4.032z" fill="url(#paint38_linear_2_11)"/><path d="M121.133 48.503h4.032v4.033h-4.032v-4.033z" fill="url(#paint39_linear_2_11)"/><path d="M121.133 24.309h4.032v4.032h-4.032v-4.032z" fill="url(#paint40_linear_2_11)"/><path d="M121.133.114h4.032v4.032h-4.032V.114z" fill="url(#paint41_linear_2_11)"/><path d="M145.327 145.282h4.033v4.032h-4.033v-4.032z" fill="url(#paint42_linear_2_11)"/><path d="M145.327 121.087h4.033v4.032h-4.033v-4.032z" fill="url(#paint43_linear_2_11)"/><path d="M145.327 96.892h4.033v4.033h-4.033v-4.033z" fill="url(#paint44_linear_2_11)"/><path d="M145.327 72.698h4.033v4.032h-4.033v-4.032z" fill="url(#paint45_linear_2_11)"/><path d="M145.327 48.503h4.033v4.033h-4.033v-4.033z" fill="url(#paint46_linear_2_11)"/><path d="M145.327 24.309h4.033v4.032h-4.033v-4.032z" fill="url(#paint47_linear_2_11)"/><path d="M145.327.114h4.033v4.032h-4.033V.114z" fill="url(#paint48_linear_2_11)"/><defs><linearGradient id="paint0_linear_2_11" x1="-3.104" y1="-13.407" x2="162.415" y2="174.025" gradientUnits="userSpaceOnUse"><stop stop-color="#C3C6D0"/><stop offset="1" stop-color="#C3C6D0" stop-opacity="0"/></linearGradient><linearGradient id="paint1_linear_2_11" x1="-3.104" y1="-13.407" x2="162.415" y2="174.025" gradientUnits="userSpaceOnUse"><stop stop-color="#C3C6D0"/><stop offset="1" stop-color="#C3C6D0" stop-opacity="0"/></linearGradient><linearGradient id="paint2_linear_2_11" x1="-3.104" y1="-13.407" x2="162.415" y2="174.025" gradientUnits="userSpaceOnUse"><stop stop-color="#C3C6D0"/><stop offset="1" stop-color="#C3C6D0" stop-opacity="0"/></linearGradient><linearGradient id="paint3_linear_2_11" x1="-3.104" y1="-13.407" x2="162.415" y2="174.025" gradientUnits="userSpaceOnUse"><stop stop-color="#C3C6D0"/><stop offset="1" stop-color="#C3C6D0" stop-opacity="0"/></linearGradient><linearGradient id="paint4_linear_2_11" x1="-3.104" y1="-13.407" x2="162.415" y2="174.025" gradientUnits="userSpaceOnUse"><stop stop-color="#C3C6D0"/><stop offset="1" stop-color="#C3C6D0" stop-opacity="0"/></linearGradient><linearGradient id="paint5_linear_2_11" x1="-3.104" y1="-13.407" x2="162.415" y2="174.025" gradientUnits="userSpaceOnUse"><stop stop-color="#C3C6D0"/><stop offset="1" stop-color="#C3C6D0" stop-opacity="0"/></linearGradient><linearGradient id="paint6_linear_2_11" x1="-3.104" y1="-13.407" x2="162.415" y2="174.025" gradientUnits="userSpaceOnUse"><stop stop-color="#C3C6D0"/><stop offset="1" stop-color="#C3C6D0" stop-opacity="0"/></linearGradient><linearGradient id="paint7_linear_2_11" x1="-3.104" y1="-13.407" x2="162.415" y2="174.025" gradientUnits="userSpaceOnUse"><stop stop-color="#C3C6D0"/><stop offset="1" stop-color="#C3C6D0" stop-opacity="0"/></linearGradient><linearGradient id="paint8_linear_2_11" x1="-3.104" y1="-13.407" x2="162.415" y2="174.025" gradientUnits="userSpaceOnUse"><stop stop-color="#C3C6D0"/><stop offset="1" stop-color="#C3C6D0" stop-opacity="0"/></linearGradient><linearGradient id="paint9_linear_2_11" x1="-3.104" y1="-13.407" x2="162.415" y2="174.025" gradientUnits="userSpaceOnUse"><stop stop-color="#C3C6D0"/><stop offset="1" stop-color="#C3C6D0" stop-opacity="0"/></linearGradient><linearGradient id="paint10_linear_2_11" x1="-3.104" y1="-13.407" x2="162.415" y2="174.025" gradientUnits="userSpaceOnUse"><stop stop-color="#C3C6D0"/><stop offset="1" stop-color="#C3C6D0" stop-opacity="0"/></linearGradient><linearGradient id="paint11_linear_2_11" x1="-3.104" y1="-13.407" x2="162.415" y2="174.025" gradientUnits="userSpaceOnUse"><stop stop-color="#C3C6D0"/><stop offset="1" stop-color="#C3C6D0" stop-opacity="0"/></linearGradient><linearGradient id="paint12_linear_2_11" x1="-3.104" y1="-13.407" x2="162.415" y2="174.025" gradientUnits="userSpaceOnUse"><stop stop-color="#C3C6D0"/><stop offset="1" stop-color="#C3C6D0" stop-opacity="0"/></linearGradient><linearGradient id="paint13_linear_2_11" x1="-3.104" y1="-13.407" x2="162.415" y2="174.025" gradientUnits="userSpaceOnUse"><stop stop-color="#C3C6D0"/><stop offset="1" stop-color="#C3C6D0" stop-opacity="0"/></linearGradient><linearGradient id="paint14_linear_2_11" x1="-3.104" y1="-13.407" x2="162.415" y2="174.025" gradientUnits="userSpaceOnUse"><stop stop-color="#C3C6D0"/><stop offset="1" stop-color="#C3C6D0" stop-opacity="0"/></linearGradient><linearGradient id="paint15_linear_2_11" x1="-3.104" y1="-13.407" x2="162.415" y2="174.025" gradientUnits="userSpaceOnUse"><stop stop-color="#C3C6D0"/><stop offset="1" stop-color="#C3C6D0" stop-opacity="0"/></linearGradient><linearGradient id="paint16_linear_2_11" x1="-3.104" y1="-13.407" x2="162.415" y2="174.025" gradientUnits="userSpaceOnUse"><stop stop-color="#C3C6D0"/><stop offset="1" stop-color="#C3C6D0" stop-opacity="0"/></linearGradient><linearGradient id="paint17_linear_2_11" x1="-3.104" y1="-13.407" x2="162.415" y2="174.025" gradientUnits="userSpaceOnUse"><stop stop-color="#C3C6D0"/><stop offset="1" stop-color="#C3C6D0" stop-opacity="0"/></linearGradient><linearGradient id="paint18_linear_2_11" x1="-3.104" y1="-13.407" x2="162.415" y2="174.025" gradientUnits="userSpaceOnUse"><stop stop-color="#C3C6D0"/><stop offset="1" stop-color="#C3C6D0" stop-opacity="0"/></linearGradient><linearGradient id="paint19_linear_2_11" x1="-3.104" y1="-13.407" x2="162.415" y2="174.025" gradientUnits="userSpaceOnUse"><stop stop-color="#C3C6D0"/><stop offset="1" stop-color="#C3C6D0" stop-opacity="0"/></linearGradient><linearGradient id="paint20_linear_2_11" x1="-3.104" y1="-13.407" x2="162.415" y2="174.025" gradientUnits="userSpaceOnUse"><stop stop-color="#C3C6D0"/><stop offset="1" stop-color="#C3C6D0" stop-opacity="0"/></linearGradient><linearGradient id="paint21_linear_2_11" x1="-3.104" y1="-13.407" x2="162.415" y2="174.025" gradientUnits="userSpaceOnUse"><stop stop-color="#C3C6D0"/><stop offset="1" stop-color="#C3C6D0" stop-opacity="0"/></linearGradient><linearGradient id="paint22_linear_2_11" x1="-3.104" y1="-13.407" x2="162.415" y2="174.025" gradientUnits="userSpaceOnUse"><stop stop-color="#C3C6D0"/><stop offset="1" stop-color="#C3C6D0" stop-opacity="0"/></linearGradient><linearGradient id="paint23_linear_2_11" x1="-3.104" y1="-13.407" x2="162.415" y2="174.025" gradientUnits="userSpaceOnUse"><stop stop-color="#C3C6D0"/><stop offset="1" stop-color="#C3C6D0" stop-opacity="0"/></linearGradient><linearGradient id="paint24_linear_2_11" x1="-3.104" y1="-13.407" x2="162.415" y2="174.025" gradientUnits="userSpaceOnUse"><stop stop-color="#C3C6D0"/><stop offset="1" stop-color="#C3C6D0" stop-opacity="0"/></linearGradient><linearGradient id="paint25_linear_2_11" x1="-3.104" y1="-13.407" x2="162.415" y2="174.025" gradientUnits="userSpaceOnUse"><stop stop-color="#C3C6D0"/><stop offset="1" stop-color="#C3C6D0" stop-opacity="0"/></linearGradient><linearGradient id="paint26_linear_2_11" x1="-3.104" y1="-13.407" x2="162.415" y2="174.025" gradientUnits="userSpaceOnUse"><stop stop-color="#C3C6D0"/><stop offset="1" stop-color="#C3C6D0" stop-opacity="0"/></linearGradient><linearGradient id="paint27_linear_2_11" x1="-3.104" y1="-13.407" x2="162.415" y2="174.025" gradientUnits="userSpaceOnUse"><stop stop-color="#C3C6D0"/><stop offset="1" stop-color="#C3C6D0" stop-opacity="0"/></linearGradient><linearGradient id="paint28_linear_2_11" x1="-3.104" y1="-13.407" x2="162.415" y2="174.025" gradientUnits="userSpaceOnUse"><stop stop-color="#C3C6D0"/><stop offset="1" stop-color="#C3C6D0" stop-opacity="0"/></linearGradient><linearGradient id="paint29_linear_2_11" x1="-3.104" y1="-13.407" x2="162.415" y2="174.025" gradientUnits="userSpaceOnUse"><stop stop-color="#C3C6D0"/><stop offset="1" stop-color="#C3C6D0" stop-opacity="0"/></linearGradient><linearGradient id="paint30_linear_2_11" x1="-3.104" y1="-13.407" x2="162.415" y2="174.025" gradientUnits="userSpaceOnUse"><stop stop-color="#C3C6D0"/><stop offset="1" stop-color="#C3C6D0" stop-opacity="0"/></linearGradient><linearGradient id="paint31_linear_2_11" x1="-3.104" y1="-13.407" x2="162.415" y2="174.025" gradientUnits="userSpaceOnUse"><stop stop-color="#C3C6D0"/><stop offset="1" stop-color="#C3C6D0" stop-opacity="0"/></linearGradient><linearGradient id="paint32_linear_2_11" x1="-3.104" y1="-13.407" x2="162.415" y2="174.025" gradientUnits="userSpaceOnUse"><stop stop-color="#C3C6D0"/><stop offset="1" stop-color="#C3C6D0" stop-opacity="0"/></linearGradient><linearGradient id="paint33_linear_2_11" x1="-3.104" y1="-13.407" x2="162.415" y2="174.025" gradientUnits="userSpaceOnUse"><stop stop-color="#C3C6D0"/><stop offset="1" stop-color="#C3C6D0" stop-opacity="0"/></linearGradient><linearGradient id="paint34_linear_2_11" x1="-3.104" y1="-13.407" x2="162.415" y2="174.025" gradientUnits="userSpaceOnUse"><stop stop-color="#C3C6D0"/><stop offset="1" stop-color="#C3C6D0" stop-opacity="0"/></linearGradient><linearGradient id="paint35_linear_2_11" x1="-3.104" y1="-13.407" x2="162.415" y2="174.025" gradientUnits="userSpaceOnUse"><stop stop-color="#C3C6D0"/><stop offset="1" stop-color="#C3C6D0" stop-opacity="0"/></linearGradient><linearGradient id="paint36_linear_2_11" x1="-3.104" y1="-13.407" x2="162.415" y2="174.025" gradientUnits="userSpaceOnUse"><stop stop-color="#C3C6D0"/><stop offset="1" stop-color="#C3C6D0" stop-opacity="0"/></linearGradient><linearGradient id="paint37_linear_2_11" x1="-3.104" y1="-13.407" x2="162.415" y2="174.025" gradientUnits="userSpaceOnUse"><stop stop-color="#C3C6D0"/><stop offset="1" stop-color="#C3C6D0" stop-opacity="0"/></linearGradient><linearGradient id="paint38_linear_2_11" x1="-3.104" y1="-13.407" x2="162.415" y2="174.025" gradientUnits="userSpaceOnUse"><stop stop-color="#C3C6D0"/><stop offset="1" stop-color="#C3C6D0" stop-opacity="0"/></linearGradient><linearGradient id="paint39_linear_2_11" x1="-3.104" y1="-13.407" x2="162.415" y2="174.025" gradientUnits="userSpaceOnUse"><stop stop-color="#C3C6D0"/><stop offset="1" stop-color="#C3C6D0" stop-opacity="0"/></linearGradient><linearGradient id="paint40_linear_2_11" x1="-3.104" y1="-13.407" x2="162.415" y2="174.025" gradientUnits="userSpaceOnUse"><stop stop-color="#C3C6D0"/><stop offset="1" stop-color="#C3C6D0" stop-opacity="0"/></linearGradient><linearGradient id="paint41_linear_2_11" x1="-3.104" y1="-13.407" x2="162.415" y2="174.025" gradientUnits="userSpaceOnUse"><stop stop-color="#C3C6D0"/><stop offset="1" stop-color="#C3C6D0" stop-opacity="0"/></linearGradient><linearGradient id="paint42_linear_2_11" x1="-3.104" y1="-13.407" x2="162.415" y2="174.025" gradientUnits="userSpaceOnUse"><stop stop-color="#C3C6D0"/><stop offset="1" stop-color="#C3C6D0" stop-opacity="0"/></linearGradient><linearGradient id="paint43_linear_2_11" x1="-3.104" y1="-13.407" x2="162.415" y2="174.025" gradientUnits="userSpaceOnUse"><stop stop-color="#C3C6D0"/><stop offset="1" stop-color="#C3C6D0" stop-opacity="0"/></linearGradient><linearGradient id="paint44_linear_2_11" x1="-3.104" y1="-13.407" x2="162.415" y2="174.025" gradientUnits="userSpaceOnUse"><stop stop-color="#C3C6D0"/><stop offset="1" stop-color="#C3C6D0" stop-opacity="0"/></linearGradient><linearGradient id="paint45_linear_2_11" x1="-3.104" y1="-13.407" x2="162.415" y2="174.025" gradientUnits="userSpaceOnUse"><stop stop-color="#C3C6D0"/><stop offset="1" stop-color="#C3C6D0" stop-opacity="0"/></linearGradient><linearGradient id="paint46_linear_2_11" x1="-3.104" y1="-13.407" x2="162.415" y2="174.025" gradientUnits="userSpaceOnUse"><stop stop-color="#C3C6D0"/><stop offset="1" stop-color="#C3C6D0" stop-opacity="0"/></linearGradient><linearGradient id="paint47_linear_2_11" x1="-3.104" y1="-13.407" x2="162.415" y2="174.025" gradientUnits="userSpaceOnUse"><stop stop-color="#C3C6D0"/><stop offset="1" stop-color="#C3C6D0" stop-opacity="0"/></linearGradient><linearGradient id="paint48_linear_2_11" x1="-3.104" y1="-13.407" x2="162.415" y2="174.025" gradientUnits="userSpaceOnUse"><stop stop-color="#C3C6D0"/><stop offset="1" stop-color="#C3C6D0" stop-opacity="0"/></linearGradient></defs></svg>