<svg width="352" height="727" fill="none" xmlns="http://www.w3.org/2000/svg"><mask id="a" style="mask-type:alpha" maskUnits="userSpaceOnUse" x="-76" y="-1" width="428" height="728"><path stroke="#A5E5F4" d="M-75.279 287.199l427-286.92m-427 295.197l427-286.92m-427 295.198l427-286.92m-427 295.198l427-286.92m-427 295.198l427-286.92m-427 295.198l427-286.92m-427 295.198l427-286.92m-427 295.198l427-286.92m-427 295.198l427-286.92m-427 295.198l427-286.92m-427 295.198l427-286.92m-427 295.198l427-286.92m-427 295.198l427-286.92m-427 295.198l427-286.92m-427 295.197l427-286.92m-427 295.198l427-286.919m-427 295.197l427-286.92m-427 295.198l427-286.92m-427 295.198l427-286.92m-427 295.198l427-286.92m-427 295.198l427-286.92m-427 295.198l427-286.92m-427 295.198l427-286.92m-427 295.198l427-286.92m-427 295.198l427-286.92m-427 295.198l427-286.92m-427 295.198l427-286.92m-427 295.198l427-286.92m-427 295.197l427-286.919m-427 295.197l427-286.92m-427 295.198l427-286.919m-427 295.197l427-286.92m-427 295.198l427-286.92m-427 295.198l427-286.92m-427 295.198l427-286.92m-427 295.198l427-286.92m-427 295.198l427-286.92m-427 295.198l427-286.92m-427 295.198l427-286.92m-427 295.198l427-286.92m-427 295.198l427-286.92m-427 295.198l427-286.92m-427 295.198l427-286.92m-427 295.197l427-286.919m-427 295.198l427-286.92m-427 295.197l427-286.92m-427 295.198l427-286.919m-427 295.197l427-286.92m-427 295.198l427-286.92m-427 295.198l427-286.92m-427 295.198l427-286.92m-427 295.198l427-286.92m-427 295.198l427-286.92m-427 295.198l427-286.92"/></mask><g mask="url(#a)"><path d="M316.735 459.891H-8.177V241.86l162.299-108.964L316.735 241.86v218.031z" fill="#A5E5F4"/></g><path d="M316.735 459.891H-8.177V241.86l162.299-108.964L316.735 241.86v218.031z" stroke="#A5E5F4" stroke-miterlimit="10"/></svg>